<?xml version="1.0" encoding="UTF-8" standalone="no"?>
<svg
   xmlns:dc="http://purl.org/dc/elements/1.1/"
   xmlns:cc="http://creativecommons.org/ns#"
   xmlns:rdf="http://www.w3.org/1999/02/22-rdf-syntax-ns#"
   xmlns:svg="http://www.w3.org/2000/svg"
   xmlns="http://www.w3.org/2000/svg"
   id="svg5020"
   version="1.1"
   viewBox="0 0 100 50"
   height="50mm"
   width="100mm">
  <defs
     id="defs5014" />
  <metadata
     id="metadata5017">
    <rdf:RDF>
      <cc:Work
         rdf:about="">
        <dc:format>image/svg+xml</dc:format>
        <dc:type
           rdf:resource="http://purl.org/dc/dcmitype/StillImage" />
        <dc:title></dc:title>
      </cc:Work>
    </rdf:RDF>
  </metadata>
  <g
     transform="translate(0,-247)"
     id="layer1">
    <path
       id="path5136"
       d="m 44.210016,293.15836 c -1.257836,-0.27291 -3.656543,-1.13505 -5.330463,-1.91586 -2.356831,-1.09941 -3.043484,-1.71838 -3.043484,-2.74356 0,-2.60156 1.46077,-2.89148 5.641786,-1.11969 5.300386,2.24613 11.458296,2.26108 16.21766,0.0393 3.317474,-1.54866 5.160337,-1.57385 5.783468,-0.079 1.63144,3.91356 -10.77803,7.66096 -19.268967,5.81883 z M 27.002779,277.68664 c -1.979055,-0.48144 -5.105629,-2.91263 -6.160388,-4.79026 -1.261952,-2.24637 -0.850184,-6.70363 0.808539,-8.75223 3.927918,-4.85117 11.682331,-4.81008 15.644441,0.0829 1.787086,2.20695 1.801333,7.50796 0.0259,9.69681 -2.522091,3.10961 -6.716404,4.63912 -10.318639,3.76279 z m 40.279442,-0.20135 c -3.690705,-1.01725 -6.4692,-4.62177 -6.4692,-8.39245 0,-9.61104 14.281085,-12.05687 18.003937,-3.08343 1.883646,4.54032 -0.08145,8.99552 -4.846021,10.98742 -2.715844,1.13538 -4.00102,1.22921 -6.688716,0.48846 z m -52.76792,-18.42841 c 0,-0.9085 4.387832,-4.07168 7.247607,-5.22479 3.5738,-1.44099 9.980696,-1.90587 14.00831,-1.01646 3.323608,0.73396 3.887971,1.10163 3.21945,2.0974 -0.305249,0.45466 -1.342365,0.39947 -3.767264,-0.20029 -5.716386,-1.41407 -12.210689,-0.13089 -17.252595,3.4093 -2.088593,1.46645 -3.455508,1.83631 -3.455508,0.93493 z m 67.315202,-0.61957 c -3.317333,-3.37433 -12.244616,-5.24639 -17.653103,-3.70189 -2.917306,0.83312 -4.55404,0.53606 -3.738622,-0.67848 0.676202,-1.00718 6.54812,-1.93512 10.430129,-1.64828 2.179684,0.16109 5.224578,0.87609 7.087298,1.66428 3.375237,1.42819 7.225531,4.07962 7.225531,4.97569 0,0.93451 -2.23172,0.52742 -3.351233,-0.61132 z"
       style="fill:#2f1820;stroke-width:0.58448654" />
  </g>
</svg>
