<?xml version="1.0" encoding="UTF-8" standalone="no"?>
<svg
   xmlns:dc="http://purl.org/dc/elements/1.1/"
   xmlns:cc="http://creativecommons.org/ns#"
   xmlns:rdf="http://www.w3.org/1999/02/22-rdf-syntax-ns#"
   xmlns:svg="http://www.w3.org/2000/svg"
   xmlns="http://www.w3.org/2000/svg"
   xmlns:sodipodi="http://sodipodi.sourceforge.net/DTD/sodipodi-0.dtd"
   xmlns:inkscape="http://www.inkscape.org/namespaces/inkscape"
   id="svg5020"
   version="1.1"
   viewBox="0 0 115 65"
   height="65mm"
   width="115mm"
   sodipodi:docname="emotion-neutral.svg"
   inkscape:version="0.92.4 (5da689c313, 2019-01-14)">
  <sodipodi:namedview
     pagecolor="#ffffff"
     bordercolor="#666666"
     borderopacity="1"
     objecttolerance="10"
     gridtolerance="10"
     guidetolerance="10"
     inkscape:pageopacity="0"
     inkscape:pageshadow="2"
     inkscape:window-width="1251"
     inkscape:window-height="849"
     id="namedview7"
     showgrid="false"
     inkscape:zoom="0.8969375"
     inkscape:cx="188.97638"
     inkscape:cy="94.488189"
     inkscape:window-x="0"
     inkscape:window-y="0"
     inkscape:window-maximized="0"
     inkscape:current-layer="svg5020" />
  <defs
     id="defs5014" />
  <metadata
     id="metadata5017">
    <rdf:RDF>
      <cc:Work
         rdf:about="">
        <dc:format>image/svg+xml</dc:format>
        <dc:type
           rdf:resource="http://purl.org/dc/dcmitype/StillImage" />
        <dc:title></dc:title>
      </cc:Work>
    </rdf:RDF>
  </metadata>
  <g
     transform="matrix(1.4536837,0,0,1.419336,-14.058555,-353.76074)"
     id="layer1-8">
    <path
       inkscape:connector-curvature="0"
       id="path5123-6"
       d="m 36.208289,293.75837 c -0.214235,-0.57163 -0.214235,-1.507 0,-2.07859 0.334291,-0.89147 2.315708,-1.01299 13.929206,-0.85424 l 13.539508,0.185 v 1.7085 1.70847 l -13.539508,0.185 c -11.613498,0.15885 -13.594915,0.0371 -13.929206,-0.85423 z M 24.353832,280.39442 c -4.046037,-1.23964 -7.092042,-5.63227 -7.092042,-10.2274 0,-11.71248 15.656031,-14.69313 19.737311,-3.75762 2.065,5.53301 -0.08929,10.96233 -5.312584,13.38978 -2.977347,1.38364 -4.386226,1.498 -7.332685,0.59524 z m 44.077762,0 c -4.046034,-1.23964 -7.092036,-5.63227 -7.092036,-10.2274 0,-11.71248 15.656028,-14.69313 19.737308,-3.75762 2.064996,5.53301 -0.08898,10.96233 -5.312587,13.38978 -2.977347,1.38364 -4.386227,1.498 -7.332685,0.59524 z M 10.583329,257.93667 c 0,-1.10714 4.810282,-4.96191 7.945389,-6.36714 3.917841,-1.75609 10.941604,-2.32262 15.356986,-1.23873 3.643594,0.89446 4.262291,1.34253 3.529408,2.55598 -0.334639,0.55407 -1.471606,0.48685 -4.129996,-0.24408 -6.266711,-1.72329 -13.386261,-0.1595 -18.913589,4.15471 -2.289678,1.78708 -3.788198,2.2378 -3.788198,1.13936 z m 73.79612,-0.75502 c -3.636716,-4.11209 -13.423525,-6.39348 -19.352695,-4.51128 -3.198177,1.01524 -4.992492,0.65325 -4.098567,-0.82682 0.741308,-1.2274 7.178552,-2.35824 11.434313,-2.00867 2.389538,0.1963 5.727586,1.06761 7.769645,2.02813 3.700198,1.74047 7.921188,4.97163 7.921188,6.06362 0,1.13887 -2.446586,0.64276 -3.673884,-0.74498 z"
       style="fill:#2f1820;stroke-width:0.67557555" />
  </g>
</svg>
