<?xml version="1.0" encoding="UTF-8" standalone="no"?>
<svg
   xmlns:dc="http://purl.org/dc/elements/1.1/"
   xmlns:cc="http://creativecommons.org/ns#"
   xmlns:rdf="http://www.w3.org/1999/02/22-rdf-syntax-ns#"
   xmlns:svg="http://www.w3.org/2000/svg"
   xmlns="http://www.w3.org/2000/svg"
   id="svg5020"
   version="1.1"
   viewBox="0 0 100 50"
   height="50mm"
   width="100mm">
  <defs
     id="defs5014" />
  <metadata
     id="metadata5017">
    <rdf:RDF>
      <cc:Work
         rdf:about="">
        <dc:format>image/svg+xml</dc:format>
        <dc:type
           rdf:resource="http://purl.org/dc/dcmitype/StillImage" />
        <dc:title></dc:title>
      </cc:Work>
    </rdf:RDF>
  </metadata>
  <g
     transform="translate(0,-247)"
     id="layer1">
    <path
       style="fill:#37262b;stroke-width:0.79452163"
       d="m 42.914866,297.05797 c -1.465691,-1.50898 0.07436,-1.90916 7.346255,-1.90916 5.967455,0 7.816401,0.24605 7.571243,1.00771 -0.354399,1.10129 -13.926768,1.92146 -14.917498,0.90145 z M 23.049571,286.62141 c -0.740391,-1.98648 1.213837,-3.32684 7.570469,-5.19231 8.944752,-2.62501 24.731082,-3.06297 34.453475,-0.95584 8.957586,1.94135 11.63238,2.9537 12.261052,4.64039 1.027129,2.75572 -1.008966,3.03946 -7.702834,1.07345 -5.667992,-1.66476 -8.196846,-1.91426 -19.435832,-1.91773 -11.083392,-0.004 -13.784013,0.25404 -18.997314,1.80994 -7.23201,2.15856 -7.538912,2.17897 -8.149016,0.5421 z m -3.391989,-18.17382 c -5.366349,-2.1966 -8.358699,-8.12536 -7.060102,-13.98816 0.390093,-1.76115 0.576066,-3.33921 0.413219,-3.50687 -0.16277,-0.16759 -1.538904,-0.3047 -3.0579727,-0.3047 -2.9860672,0 -5.4417432,-1.89232 -3.4677192,-2.67219 0.604102,-0.23881 6.7113609,-0.33365 13.5716249,-0.211 l 12.47321,0.2228 1.772852,3.22469 c 2.194503,3.99176 2.256097,6.98274 0.232323,11.28667 -2.620266,5.57276 -9.285465,8.23787 -14.877545,5.94884 z m 51.219249,-0.62094 c -3.268358,-2.05191 -5.660224,-5.33528 -6.251827,-8.58202 -0.576289,-3.16276 1.589768,-11.27308 2.826098,-10.48639 0.50944,0.32413 0.351514,0.58525 0,0 -0.318886,-0.53131 -0.520872,0.6457 0,0 0.75778,-0.94006 3.49217,-1.17396 13.724262,-1.17396 8.530645,0 12.95683,0.29785 13.316039,0.89631 0.790923,1.31762 -0.85707,2.05876 -4.420156,1.98788 -3.001189,-0.0598 -3.117053,0.0305 -2.544134,1.95288 0.329982,1.10849 0.564857,3.5936 0.521648,5.52245 -0.190888,8.52189 -10.181448,14.27163 -17.17193,9.88285 z"
       id="path5080" />
  </g>
</svg>
