<?xml version="1.0" encoding="UTF-8" standalone="no"?>
<svg
   xmlns:dc="http://purl.org/dc/elements/1.1/"
   xmlns:cc="http://creativecommons.org/ns#"
   xmlns:rdf="http://www.w3.org/1999/02/22-rdf-syntax-ns#"
   xmlns:svg="http://www.w3.org/2000/svg"
   xmlns="http://www.w3.org/2000/svg"
   id="svg8"
   version="1.1"
   viewBox="0 0 100 50"
   height="50mm"
   width="100mm">
  <defs
     id="defs2" />
  <metadata
     id="metadata5">
    <rdf:RDF>
      <cc:Work
         rdf:about="">
        <dc:format>image/svg+xml</dc:format>
        <dc:type
           rdf:resource="http://purl.org/dc/dcmitype/StillImage" />
        <dc:title></dc:title>
      </cc:Work>
    </rdf:RDF>
  </metadata>
  <g
     transform="translate(0,-247)"
     id="layer1">
    <path
       id="path21"
       d="m 36.194619,295.06016 c -0.617713,-0.37791 -1.12312,-1.44638 -1.12312,-2.37438 0,-1.4207 0.684326,-2.02773 4.331998,-3.84273 3.948296,-1.96457 4.872001,-2.15296 10.428875,-2.12688 4.930671,0.0223 6.73263,0.32521 9.420455,1.57912 4.033163,1.88155 5.601384,3.54507 5.052952,5.36003 -0.646276,2.13895 -1.999069,2.19602 -5.951582,0.25096 -3.073922,-1.51255 -4.586991,-1.82266 -8.842703,-1.81228 -4.332909,0.01 -5.656749,0.2997 -8.482228,1.85331 -3.827956,2.10471 -3.381248,2.0019 -4.834647,1.11269 z M 25.765714,279.82815 c -2.084877,-0.57876 -5.378682,-3.50134 -6.489887,-5.75845 -1.329419,-2.70044 -0.895628,-8.05859 0.851816,-10.52128 4.13801,-5.83171 12.307181,-5.78231 16.481211,0.0997 1.882673,2.65302 1.89768,9.02548 0.02729,11.65675 -2.65702,3.73814 -7.075642,5.57679 -10.870579,4.52333 z M 68.19962,279.5861 c -3.888109,-1.22286 -6.815252,-5.55592 -6.815252,-10.08875 0,-11.55365 15.044973,-14.49385 18.966921,-3.70667 1.984427,5.45803 -0.0855,10.81372 -5.105194,13.20823 -2.861135,1.36487 -4.215023,1.47768 -7.046475,0.58719 z M 12.609295,257.43288 c 0,-1.09212 4.622527,-4.89465 7.635263,-6.28083 3.76492,-1.73225 10.514529,-2.29109 14.757568,-1.22191 3.501347,0.88231 4.095925,1.3243 3.391617,2.52134 -0.321576,0.54655 -1.414134,0.48021 -3.968762,-0.24078 -6.022106,-1.69989 -12.863769,-0.15734 -18.175352,4.0984 -2.200307,1.76286 -3.640334,2.20746 -3.640334,1.12391 z m 70.915702,-0.74478 c -3.494769,-4.05637 -12.89958,-6.30682 -18.59735,-4.45014 -3.073317,1.00151 -4.797626,0.64442 -3.938563,-0.81561 0.712371,-1.21076 6.89833,-2.32626 10.988008,-1.98143 2.296271,0.19364 5.504027,1.05317 7.466381,2.00066 3.55577,1.71686 7.612005,4.90421 7.612005,5.9814 0,1.12339 -2.351087,0.63401 -3.530481,-0.73488 z"
       style="fill:#2f1820;stroke-width:0.6577543" />
  </g>
</svg>
